<?xml version="1.0" encoding="UTF-8" standalone="no"?>
<!-- Created with Inkscape (http://www.inkscape.org/) -->

<svg
   width="3.6533782mm"
   height="4.4291301mm"
   viewBox="0 0 3.6533782 4.4291301"
   version="1.1"
   id="svg1"
   xml:space="preserve"
   xmlns:inkscape="http://www.inkscape.org/namespaces/inkscape"
   xmlns:sodipodi="http://sodipodi.sourceforge.net/DTD/sodipodi-0.dtd"
   xmlns="http://www.w3.org/2000/svg"
   xmlns:svg="http://www.w3.org/2000/svg"><sodipodi:namedview
     id="namedview1"
     pagecolor="#505050"
     bordercolor="#eeeeee"
     borderopacity="1"
     inkscape:showpageshadow="0"
     inkscape:pageopacity="0"
     inkscape:pagecheckerboard="0"
     inkscape:deskcolor="#505050"
     inkscape:document-units="mm"><inkscape:page
       x="0"
       y="0"
       width="3.6533782"
       height="4.4291301"
       id="page2"
       margin="0"
       bleed="0" /></sodipodi:namedview><defs
     id="defs1" /><g
     inkscape:label="Layer 1"
     inkscape:groupmode="layer"
     id="layer1"
     transform="translate(72.205856,-7.5750187)"><path
       d="m -69.237583,9.9287637 a 0.96024347,0.96024347 0 0 1 0.45713,-0.8054093 0.98294472,0.98294472 0 0 0 -0.774171,-0.418712 c -0.325967,-0.034149 -0.641844,0.194998 -0.807932,0.194998 -0.169192,0 -0.424921,-0.1916995 -0.700052,-0.1858787 a 1.0312576,1.0312576 0 0 0 -0.867886,0.5293078 c -0.37525,0.649605 -0.09527,1.6044155 0.264071,2.1296485 0.179864,0.257087 0.389996,0.544248 0.665128,0.534159 0.269116,-0.01125 0.369623,-0.171715 0.694619,-0.171715 0.321698,0 0.415996,0.171715 0.69656,0.165312 0.288907,-0.0049 0.470711,-0.258445 0.644172,-0.518054 a 2.1269325,2.1269325 0 0 0 0.294922,-0.599934 0.92784083,0.92784083 0 0 1 -0.566561,-0.8537223 z M -69.767667,8.359079 a 0.94530333,0.94530333 0 0 0 0.216341,-0.677157 0.96179569,0.96179569 0 0 0 -0.622441,0.3220861 0.89951278,0.89951278 0 0 0 -0.221968,0.6519334 0.79551389,0.79551389 0 0 0 0.628068,-0.2968625 z"
       style="fill:#ffffff;stroke:#ffffff;stroke-width:0.194028"
       id="path1" /></g></svg>
