<?xml version="1.0" encoding="UTF-8" standalone="no"?>
<!-- Created with Inkscape (http://www.inkscape.org/) -->

<svg
   width="210mm"
   height="297mm"
   viewBox="0 0 210 297"
   version="1.1"
   id="svg1"
   xml:space="preserve"
   inkscape:version="1.4.3 (0d15f75, 2025-12-25)"
   sodipodi:docname="platforms.svg"
   xmlns:inkscape="http://www.inkscape.org/namespaces/inkscape"
   xmlns:sodipodi="http://sodipodi.sourceforge.net/DTD/sodipodi-0.dtd"
   xmlns:xlink="http://www.w3.org/1999/xlink"
   xmlns="http://www.w3.org/2000/svg"
   xmlns:svg="http://www.w3.org/2000/svg"><sodipodi:namedview
     id="namedview1"
     pagecolor="#505050"
     bordercolor="#eeeeee"
     borderopacity="1"
     inkscape:showpageshadow="0"
     inkscape:pageopacity="0"
     inkscape:pagecheckerboard="0"
     inkscape:deskcolor="#505050"
     inkscape:document-units="mm"
     inkscape:zoom="6.295611"
     inkscape:cx="359.29793"
     inkscape:cy="581.75449"
     inkscape:window-width="1728"
     inkscape:window-height="1056"
     inkscape:window-x="0"
     inkscape:window-y="33"
     inkscape:window-maximized="1"
     inkscape:current-layer="layer1" /><defs
     id="defs1" /><g
     inkscape:label="Layer 1"
     inkscape:groupmode="layer"
     id="layer1"><path
       d="m 101.28505,148.63918 a 0.96024347,0.96024347 0 0 1 0.45713,-0.80541 0.98294472,0.98294472 0 0 0 -0.77417,-0.41871 c -0.32596,-0.0342 -0.64184,0.195 -0.80793,0.195 -0.169188,0 -0.424918,-0.1917 -0.700048,-0.18588 a 1.0312576,1.0312576 0 0 0 -0.867887,0.52931 c -0.37525,0.6496 -0.0953,1.60441 0.26407,2.12964 0.17987,0.25709 0.389997,0.54425 0.665127,0.53416 0.26912,-0.0112 0.36963,-0.17171 0.694618,-0.17171 0.3217,0 0.416,0.17171 0.69656,0.16531 0.28891,-0.005 0.47071,-0.25844 0.64417,-0.51805 a 2.1269325,2.1269325 0 0 0 0.29493,-0.59994 0.92784083,0.92784083 0 0 1 -0.56657,-0.85372 z m -0.53008,-1.56968 a 0.94530333,0.94530333 0 0 0 0.21634,-0.67716 0.96179569,0.96179569 0 0 0 -0.62244,0.32208 0.89951278,0.89951278 0 0 0 -0.22197,0.65194 0.79551389,0.79551389 0 0 0 0.62807,-0.29686 z"
       style="fill:#ffffff;stroke:#ffffff;stroke-width:0.194028"
       id="path1"
       inkscape:export-filename="macos.svg"
       inkscape:export-xdpi="96"
       inkscape:export-ydpi="96" /><path
       d="m 104.79673,146.38333 h -2.03228 v 2.01202 h 2.03228 z m 2.2437,0 h -2.03228 v 2.01202 h 2.03228 z m -2.2437,2.22132 h -2.03228 v 2.01202 h 2.03228 z m 2.2437,0 h -2.03228 v 2.01202 h 2.03228 z"
       fill="#ffffff"
       id="path1-2"
       style="stroke-width:0.176389"
       inkscape:export-filename="win.svg"
       inkscape:export-xdpi="96"
       inkscape:export-ydpi="96" /><g
       id="g1"
       transform="matrix(0.02148023,0,0,0.02148023,110.31135,148.5)"
       inkscape:export-filename="linux.svg"
       inkscape:export-xdpi="96"
       inkscape:export-ydpi="96"><g
         id="U"><circle
           cx="-96.377197"
           r="18.921499"
           fill="#ffffff"
           id="circle1"
           cy="0" /><path
           d="M -45.6059,68.395 C -62.1655,57.3316 -74.4844,40.4175 -79.6011,20.6065 -73.623,15.7354 -69.8047,8.3164 -69.8047,0 c 0,-8.3164 -3.8183,-15.7354 -9.7964,-20.6065 5.1167,-19.811 17.4356,-36.7251 33.9952,-47.7885 l 13.8344,23.1738 C -45.9824,-35.2197 -55.2754,-18.7026 -55.2754,0 c 0,18.7026 9.293,35.2197 23.5039,45.2212 z"
           fill="#ffffff"
           id="path1-3" /></g><use
         xlink:href="#U"
         transform="rotate(120)"
         id="use1" /><use
         xlink:href="#U"
         transform="rotate(-120)"
         id="use2" /></g></g></svg>
